%TF.GenerationSoftware,KiCad,Pcbnew,5.1.6+dfsg1-1*%
%TF.CreationDate,2020-09-13T10:33:18+10:00*%
%TF.ProjectId,thermistor-to-digispark,74686572-6d69-4737-946f-722d61646170,rev?*%
%TF.SameCoordinates,Original*%
%TF.FileFunction,Soldermask,Top*%
%TF.FilePolarity,Negative*%
%FSLAX46Y46*%
G04 Gerber Fmt 4.6, Leading zero omitted, Abs format (unit mm)*
G04 Created by KiCad (PCBNEW 5.1.6+dfsg1-1) date 2020-09-13 10:33:18*
%MOMM*%
%LPD*%
G01*
G04 APERTURE LIST*
%ADD10O,1.800000X1.800000*%
%ADD11R,1.800000X1.800000*%
%ADD12C,1.979600*%
G04 APERTURE END LIST*
%TO.C,R8*%
G36*
G01*
X140300000Y-101262500D02*
X140300000Y-100737500D01*
G75*
G02*
X140562500Y-100475000I262500J0D01*
G01*
X141187500Y-100475000D01*
G75*
G02*
X141450000Y-100737500I0J-262500D01*
G01*
X141450000Y-101262500D01*
G75*
G02*
X141187500Y-101525000I-262500J0D01*
G01*
X140562500Y-101525000D01*
G75*
G02*
X140300000Y-101262500I0J262500D01*
G01*
G37*
G36*
G01*
X138550000Y-101262500D02*
X138550000Y-100737500D01*
G75*
G02*
X138812500Y-100475000I262500J0D01*
G01*
X139437500Y-100475000D01*
G75*
G02*
X139700000Y-100737500I0J-262500D01*
G01*
X139700000Y-101262500D01*
G75*
G02*
X139437500Y-101525000I-262500J0D01*
G01*
X138812500Y-101525000D01*
G75*
G02*
X138550000Y-101262500I0J262500D01*
G01*
G37*
%TD*%
%TO.C,R7*%
G36*
G01*
X140737500Y-93300000D02*
X141262500Y-93300000D01*
G75*
G02*
X141525000Y-93562500I0J-262500D01*
G01*
X141525000Y-94187500D01*
G75*
G02*
X141262500Y-94450000I-262500J0D01*
G01*
X140737500Y-94450000D01*
G75*
G02*
X140475000Y-94187500I0J262500D01*
G01*
X140475000Y-93562500D01*
G75*
G02*
X140737500Y-93300000I262500J0D01*
G01*
G37*
G36*
G01*
X140737500Y-91550000D02*
X141262500Y-91550000D01*
G75*
G02*
X141525000Y-91812500I0J-262500D01*
G01*
X141525000Y-92437500D01*
G75*
G02*
X141262500Y-92700000I-262500J0D01*
G01*
X140737500Y-92700000D01*
G75*
G02*
X140475000Y-92437500I0J262500D01*
G01*
X140475000Y-91812500D01*
G75*
G02*
X140737500Y-91550000I262500J0D01*
G01*
G37*
%TD*%
%TO.C,R6*%
G36*
G01*
X133737500Y-93300000D02*
X134262500Y-93300000D01*
G75*
G02*
X134525000Y-93562500I0J-262500D01*
G01*
X134525000Y-94187500D01*
G75*
G02*
X134262500Y-94450000I-262500J0D01*
G01*
X133737500Y-94450000D01*
G75*
G02*
X133475000Y-94187500I0J262500D01*
G01*
X133475000Y-93562500D01*
G75*
G02*
X133737500Y-93300000I262500J0D01*
G01*
G37*
G36*
G01*
X133737500Y-91550000D02*
X134262500Y-91550000D01*
G75*
G02*
X134525000Y-91812500I0J-262500D01*
G01*
X134525000Y-92437500D01*
G75*
G02*
X134262500Y-92700000I-262500J0D01*
G01*
X133737500Y-92700000D01*
G75*
G02*
X133475000Y-92437500I0J262500D01*
G01*
X133475000Y-91812500D01*
G75*
G02*
X133737500Y-91550000I262500J0D01*
G01*
G37*
%TD*%
D10*
%TO.C,J1*%
X140970000Y-110490000D03*
X138430000Y-110490000D03*
X135890000Y-110490000D03*
X133350000Y-110490000D03*
X130810000Y-110490000D03*
D11*
X128270000Y-110490000D03*
%TD*%
D12*
%TO.C,U2*%
X125770000Y-92580000D03*
X125770000Y-95120000D03*
X125770000Y-97660000D03*
X140970000Y-105410000D03*
X138430000Y-105410000D03*
X135890000Y-105410000D03*
X133350000Y-105410000D03*
X130810000Y-105410000D03*
X128270000Y-105410000D03*
%TD*%
%TO.C,R2*%
G36*
G01*
X126300000Y-103281250D02*
X126300000Y-102718750D01*
G75*
G02*
X126543750Y-102475000I243750J0D01*
G01*
X127031250Y-102475000D01*
G75*
G02*
X127275000Y-102718750I0J-243750D01*
G01*
X127275000Y-103281250D01*
G75*
G02*
X127031250Y-103525000I-243750J0D01*
G01*
X126543750Y-103525000D01*
G75*
G02*
X126300000Y-103281250I0J243750D01*
G01*
G37*
G36*
G01*
X124725000Y-103281250D02*
X124725000Y-102718750D01*
G75*
G02*
X124968750Y-102475000I243750J0D01*
G01*
X125456250Y-102475000D01*
G75*
G02*
X125700000Y-102718750I0J-243750D01*
G01*
X125700000Y-103281250D01*
G75*
G02*
X125456250Y-103525000I-243750J0D01*
G01*
X124968750Y-103525000D01*
G75*
G02*
X124725000Y-103281250I0J243750D01*
G01*
G37*
%TD*%
%TO.C,R1*%
G36*
G01*
X126300000Y-101281250D02*
X126300000Y-100718750D01*
G75*
G02*
X126543750Y-100475000I243750J0D01*
G01*
X127031250Y-100475000D01*
G75*
G02*
X127275000Y-100718750I0J-243750D01*
G01*
X127275000Y-101281250D01*
G75*
G02*
X127031250Y-101525000I-243750J0D01*
G01*
X126543750Y-101525000D01*
G75*
G02*
X126300000Y-101281250I0J243750D01*
G01*
G37*
G36*
G01*
X124725000Y-101281250D02*
X124725000Y-100718750D01*
G75*
G02*
X124968750Y-100475000I243750J0D01*
G01*
X125456250Y-100475000D01*
G75*
G02*
X125700000Y-100718750I0J-243750D01*
G01*
X125700000Y-101281250D01*
G75*
G02*
X125456250Y-101525000I-243750J0D01*
G01*
X124968750Y-101525000D01*
G75*
G02*
X124725000Y-101281250I0J243750D01*
G01*
G37*
%TD*%
%TO.C,R5*%
G36*
G01*
X139700000Y-97737500D02*
X139700000Y-98262500D01*
G75*
G02*
X139437500Y-98525000I-262500J0D01*
G01*
X138812500Y-98525000D01*
G75*
G02*
X138550000Y-98262500I0J262500D01*
G01*
X138550000Y-97737500D01*
G75*
G02*
X138812500Y-97475000I262500J0D01*
G01*
X139437500Y-97475000D01*
G75*
G02*
X139700000Y-97737500I0J-262500D01*
G01*
G37*
G36*
G01*
X141450000Y-97737500D02*
X141450000Y-98262500D01*
G75*
G02*
X141187500Y-98525000I-262500J0D01*
G01*
X140562500Y-98525000D01*
G75*
G02*
X140300000Y-98262500I0J262500D01*
G01*
X140300000Y-97737500D01*
G75*
G02*
X140562500Y-97475000I262500J0D01*
G01*
X141187500Y-97475000D01*
G75*
G02*
X141450000Y-97737500I0J-262500D01*
G01*
G37*
%TD*%
%TO.C,R4*%
G36*
G01*
X137737500Y-93300000D02*
X138262500Y-93300000D01*
G75*
G02*
X138525000Y-93562500I0J-262500D01*
G01*
X138525000Y-94187500D01*
G75*
G02*
X138262500Y-94450000I-262500J0D01*
G01*
X137737500Y-94450000D01*
G75*
G02*
X137475000Y-94187500I0J262500D01*
G01*
X137475000Y-93562500D01*
G75*
G02*
X137737500Y-93300000I262500J0D01*
G01*
G37*
G36*
G01*
X137737500Y-91550000D02*
X138262500Y-91550000D01*
G75*
G02*
X138525000Y-91812500I0J-262500D01*
G01*
X138525000Y-92437500D01*
G75*
G02*
X138262500Y-92700000I-262500J0D01*
G01*
X137737500Y-92700000D01*
G75*
G02*
X137475000Y-92437500I0J262500D01*
G01*
X137475000Y-91812500D01*
G75*
G02*
X137737500Y-91550000I262500J0D01*
G01*
G37*
%TD*%
%TO.C,R3*%
G36*
G01*
X130737500Y-93300000D02*
X131262500Y-93300000D01*
G75*
G02*
X131525000Y-93562500I0J-262500D01*
G01*
X131525000Y-94187500D01*
G75*
G02*
X131262500Y-94450000I-262500J0D01*
G01*
X130737500Y-94450000D01*
G75*
G02*
X130475000Y-94187500I0J262500D01*
G01*
X130475000Y-93562500D01*
G75*
G02*
X130737500Y-93300000I262500J0D01*
G01*
G37*
G36*
G01*
X130737500Y-91550000D02*
X131262500Y-91550000D01*
G75*
G02*
X131525000Y-91812500I0J-262500D01*
G01*
X131525000Y-92437500D01*
G75*
G02*
X131262500Y-92700000I-262500J0D01*
G01*
X130737500Y-92700000D01*
G75*
G02*
X130475000Y-92437500I0J262500D01*
G01*
X130475000Y-91812500D01*
G75*
G02*
X130737500Y-91550000I262500J0D01*
G01*
G37*
%TD*%
%TO.C,C1*%
G36*
G01*
X128281250Y-92700000D02*
X127718750Y-92700000D01*
G75*
G02*
X127475000Y-92456250I0J243750D01*
G01*
X127475000Y-91968750D01*
G75*
G02*
X127718750Y-91725000I243750J0D01*
G01*
X128281250Y-91725000D01*
G75*
G02*
X128525000Y-91968750I0J-243750D01*
G01*
X128525000Y-92456250D01*
G75*
G02*
X128281250Y-92700000I-243750J0D01*
G01*
G37*
G36*
G01*
X128281250Y-94275000D02*
X127718750Y-94275000D01*
G75*
G02*
X127475000Y-94031250I0J243750D01*
G01*
X127475000Y-93543750D01*
G75*
G02*
X127718750Y-93300000I243750J0D01*
G01*
X128281250Y-93300000D01*
G75*
G02*
X128525000Y-93543750I0J-243750D01*
G01*
X128525000Y-94031250D01*
G75*
G02*
X128281250Y-94275000I-243750J0D01*
G01*
G37*
%TD*%
%TO.C,U1*%
G36*
G01*
X130925000Y-101150000D02*
X130925000Y-101400000D01*
G75*
G02*
X130800000Y-101525000I-125000J0D01*
G01*
X129475000Y-101525000D01*
G75*
G02*
X129350000Y-101400000I0J125000D01*
G01*
X129350000Y-101150000D01*
G75*
G02*
X129475000Y-101025000I125000J0D01*
G01*
X130800000Y-101025000D01*
G75*
G02*
X130925000Y-101150000I0J-125000D01*
G01*
G37*
G36*
G01*
X130925000Y-100500000D02*
X130925000Y-100750000D01*
G75*
G02*
X130800000Y-100875000I-125000J0D01*
G01*
X129475000Y-100875000D01*
G75*
G02*
X129350000Y-100750000I0J125000D01*
G01*
X129350000Y-100500000D01*
G75*
G02*
X129475000Y-100375000I125000J0D01*
G01*
X130800000Y-100375000D01*
G75*
G02*
X130925000Y-100500000I0J-125000D01*
G01*
G37*
G36*
G01*
X130925000Y-99850000D02*
X130925000Y-100100000D01*
G75*
G02*
X130800000Y-100225000I-125000J0D01*
G01*
X129475000Y-100225000D01*
G75*
G02*
X129350000Y-100100000I0J125000D01*
G01*
X129350000Y-99850000D01*
G75*
G02*
X129475000Y-99725000I125000J0D01*
G01*
X130800000Y-99725000D01*
G75*
G02*
X130925000Y-99850000I0J-125000D01*
G01*
G37*
G36*
G01*
X130925000Y-99200000D02*
X130925000Y-99450000D01*
G75*
G02*
X130800000Y-99575000I-125000J0D01*
G01*
X129475000Y-99575000D01*
G75*
G02*
X129350000Y-99450000I0J125000D01*
G01*
X129350000Y-99200000D01*
G75*
G02*
X129475000Y-99075000I125000J0D01*
G01*
X130800000Y-99075000D01*
G75*
G02*
X130925000Y-99200000I0J-125000D01*
G01*
G37*
G36*
G01*
X130925000Y-98550000D02*
X130925000Y-98800000D01*
G75*
G02*
X130800000Y-98925000I-125000J0D01*
G01*
X129475000Y-98925000D01*
G75*
G02*
X129350000Y-98800000I0J125000D01*
G01*
X129350000Y-98550000D01*
G75*
G02*
X129475000Y-98425000I125000J0D01*
G01*
X130800000Y-98425000D01*
G75*
G02*
X130925000Y-98550000I0J-125000D01*
G01*
G37*
G36*
G01*
X130925000Y-97900000D02*
X130925000Y-98150000D01*
G75*
G02*
X130800000Y-98275000I-125000J0D01*
G01*
X129475000Y-98275000D01*
G75*
G02*
X129350000Y-98150000I0J125000D01*
G01*
X129350000Y-97900000D01*
G75*
G02*
X129475000Y-97775000I125000J0D01*
G01*
X130800000Y-97775000D01*
G75*
G02*
X130925000Y-97900000I0J-125000D01*
G01*
G37*
G36*
G01*
X130925000Y-97250000D02*
X130925000Y-97500000D01*
G75*
G02*
X130800000Y-97625000I-125000J0D01*
G01*
X129475000Y-97625000D01*
G75*
G02*
X129350000Y-97500000I0J125000D01*
G01*
X129350000Y-97250000D01*
G75*
G02*
X129475000Y-97125000I125000J0D01*
G01*
X130800000Y-97125000D01*
G75*
G02*
X130925000Y-97250000I0J-125000D01*
G01*
G37*
G36*
G01*
X130925000Y-96600000D02*
X130925000Y-96850000D01*
G75*
G02*
X130800000Y-96975000I-125000J0D01*
G01*
X129475000Y-96975000D01*
G75*
G02*
X129350000Y-96850000I0J125000D01*
G01*
X129350000Y-96600000D01*
G75*
G02*
X129475000Y-96475000I125000J0D01*
G01*
X130800000Y-96475000D01*
G75*
G02*
X130925000Y-96600000I0J-125000D01*
G01*
G37*
G36*
G01*
X136650000Y-96600000D02*
X136650000Y-96850000D01*
G75*
G02*
X136525000Y-96975000I-125000J0D01*
G01*
X135200000Y-96975000D01*
G75*
G02*
X135075000Y-96850000I0J125000D01*
G01*
X135075000Y-96600000D01*
G75*
G02*
X135200000Y-96475000I125000J0D01*
G01*
X136525000Y-96475000D01*
G75*
G02*
X136650000Y-96600000I0J-125000D01*
G01*
G37*
G36*
G01*
X136650000Y-97250000D02*
X136650000Y-97500000D01*
G75*
G02*
X136525000Y-97625000I-125000J0D01*
G01*
X135200000Y-97625000D01*
G75*
G02*
X135075000Y-97500000I0J125000D01*
G01*
X135075000Y-97250000D01*
G75*
G02*
X135200000Y-97125000I125000J0D01*
G01*
X136525000Y-97125000D01*
G75*
G02*
X136650000Y-97250000I0J-125000D01*
G01*
G37*
G36*
G01*
X136650000Y-97900000D02*
X136650000Y-98150000D01*
G75*
G02*
X136525000Y-98275000I-125000J0D01*
G01*
X135200000Y-98275000D01*
G75*
G02*
X135075000Y-98150000I0J125000D01*
G01*
X135075000Y-97900000D01*
G75*
G02*
X135200000Y-97775000I125000J0D01*
G01*
X136525000Y-97775000D01*
G75*
G02*
X136650000Y-97900000I0J-125000D01*
G01*
G37*
G36*
G01*
X136650000Y-98550000D02*
X136650000Y-98800000D01*
G75*
G02*
X136525000Y-98925000I-125000J0D01*
G01*
X135200000Y-98925000D01*
G75*
G02*
X135075000Y-98800000I0J125000D01*
G01*
X135075000Y-98550000D01*
G75*
G02*
X135200000Y-98425000I125000J0D01*
G01*
X136525000Y-98425000D01*
G75*
G02*
X136650000Y-98550000I0J-125000D01*
G01*
G37*
G36*
G01*
X136650000Y-99200000D02*
X136650000Y-99450000D01*
G75*
G02*
X136525000Y-99575000I-125000J0D01*
G01*
X135200000Y-99575000D01*
G75*
G02*
X135075000Y-99450000I0J125000D01*
G01*
X135075000Y-99200000D01*
G75*
G02*
X135200000Y-99075000I125000J0D01*
G01*
X136525000Y-99075000D01*
G75*
G02*
X136650000Y-99200000I0J-125000D01*
G01*
G37*
G36*
G01*
X136650000Y-99850000D02*
X136650000Y-100100000D01*
G75*
G02*
X136525000Y-100225000I-125000J0D01*
G01*
X135200000Y-100225000D01*
G75*
G02*
X135075000Y-100100000I0J125000D01*
G01*
X135075000Y-99850000D01*
G75*
G02*
X135200000Y-99725000I125000J0D01*
G01*
X136525000Y-99725000D01*
G75*
G02*
X136650000Y-99850000I0J-125000D01*
G01*
G37*
G36*
G01*
X136650000Y-100500000D02*
X136650000Y-100750000D01*
G75*
G02*
X136525000Y-100875000I-125000J0D01*
G01*
X135200000Y-100875000D01*
G75*
G02*
X135075000Y-100750000I0J125000D01*
G01*
X135075000Y-100500000D01*
G75*
G02*
X135200000Y-100375000I125000J0D01*
G01*
X136525000Y-100375000D01*
G75*
G02*
X136650000Y-100500000I0J-125000D01*
G01*
G37*
G36*
G01*
X136650000Y-101150000D02*
X136650000Y-101400000D01*
G75*
G02*
X136525000Y-101525000I-125000J0D01*
G01*
X135200000Y-101525000D01*
G75*
G02*
X135075000Y-101400000I0J125000D01*
G01*
X135075000Y-101150000D01*
G75*
G02*
X135200000Y-101025000I125000J0D01*
G01*
X136525000Y-101025000D01*
G75*
G02*
X136650000Y-101150000I0J-125000D01*
G01*
G37*
%TD*%
M02*
