%TF.GenerationSoftware,KiCad,Pcbnew,5.1.6+dfsg1-1*%
%TF.CreationDate,2020-09-13T10:33:18+10:00*%
%TF.ProjectId,thermistor-to-digispark,74686572-6d69-4737-946f-722d61646170,rev?*%
%TF.SameCoordinates,Original*%
%TF.FileFunction,Paste,Top*%
%TF.FilePolarity,Positive*%
%FSLAX46Y46*%
G04 Gerber Fmt 4.6, Leading zero omitted, Abs format (unit mm)*
G04 Created by KiCad (PCBNEW 5.1.6+dfsg1-1) date 2020-09-13 10:33:18*
%MOMM*%
%LPD*%
G01*
G04 APERTURE LIST*
G04 APERTURE END LIST*
%TO.C,R8*%
G36*
G01*
X140350000Y-101237500D02*
X140350000Y-100762500D01*
G75*
G02*
X140587500Y-100525000I237500J0D01*
G01*
X141162500Y-100525000D01*
G75*
G02*
X141400000Y-100762500I0J-237500D01*
G01*
X141400000Y-101237500D01*
G75*
G02*
X141162500Y-101475000I-237500J0D01*
G01*
X140587500Y-101475000D01*
G75*
G02*
X140350000Y-101237500I0J237500D01*
G01*
G37*
G36*
G01*
X138600000Y-101237500D02*
X138600000Y-100762500D01*
G75*
G02*
X138837500Y-100525000I237500J0D01*
G01*
X139412500Y-100525000D01*
G75*
G02*
X139650000Y-100762500I0J-237500D01*
G01*
X139650000Y-101237500D01*
G75*
G02*
X139412500Y-101475000I-237500J0D01*
G01*
X138837500Y-101475000D01*
G75*
G02*
X138600000Y-101237500I0J237500D01*
G01*
G37*
%TD*%
%TO.C,R7*%
G36*
G01*
X140762500Y-93350000D02*
X141237500Y-93350000D01*
G75*
G02*
X141475000Y-93587500I0J-237500D01*
G01*
X141475000Y-94162500D01*
G75*
G02*
X141237500Y-94400000I-237500J0D01*
G01*
X140762500Y-94400000D01*
G75*
G02*
X140525000Y-94162500I0J237500D01*
G01*
X140525000Y-93587500D01*
G75*
G02*
X140762500Y-93350000I237500J0D01*
G01*
G37*
G36*
G01*
X140762500Y-91600000D02*
X141237500Y-91600000D01*
G75*
G02*
X141475000Y-91837500I0J-237500D01*
G01*
X141475000Y-92412500D01*
G75*
G02*
X141237500Y-92650000I-237500J0D01*
G01*
X140762500Y-92650000D01*
G75*
G02*
X140525000Y-92412500I0J237500D01*
G01*
X140525000Y-91837500D01*
G75*
G02*
X140762500Y-91600000I237500J0D01*
G01*
G37*
%TD*%
%TO.C,R6*%
G36*
G01*
X133762500Y-93350000D02*
X134237500Y-93350000D01*
G75*
G02*
X134475000Y-93587500I0J-237500D01*
G01*
X134475000Y-94162500D01*
G75*
G02*
X134237500Y-94400000I-237500J0D01*
G01*
X133762500Y-94400000D01*
G75*
G02*
X133525000Y-94162500I0J237500D01*
G01*
X133525000Y-93587500D01*
G75*
G02*
X133762500Y-93350000I237500J0D01*
G01*
G37*
G36*
G01*
X133762500Y-91600000D02*
X134237500Y-91600000D01*
G75*
G02*
X134475000Y-91837500I0J-237500D01*
G01*
X134475000Y-92412500D01*
G75*
G02*
X134237500Y-92650000I-237500J0D01*
G01*
X133762500Y-92650000D01*
G75*
G02*
X133525000Y-92412500I0J237500D01*
G01*
X133525000Y-91837500D01*
G75*
G02*
X133762500Y-91600000I237500J0D01*
G01*
G37*
%TD*%
%TO.C,R2*%
G36*
G01*
X126350000Y-103256250D02*
X126350000Y-102743750D01*
G75*
G02*
X126568750Y-102525000I218750J0D01*
G01*
X127006250Y-102525000D01*
G75*
G02*
X127225000Y-102743750I0J-218750D01*
G01*
X127225000Y-103256250D01*
G75*
G02*
X127006250Y-103475000I-218750J0D01*
G01*
X126568750Y-103475000D01*
G75*
G02*
X126350000Y-103256250I0J218750D01*
G01*
G37*
G36*
G01*
X124775000Y-103256250D02*
X124775000Y-102743750D01*
G75*
G02*
X124993750Y-102525000I218750J0D01*
G01*
X125431250Y-102525000D01*
G75*
G02*
X125650000Y-102743750I0J-218750D01*
G01*
X125650000Y-103256250D01*
G75*
G02*
X125431250Y-103475000I-218750J0D01*
G01*
X124993750Y-103475000D01*
G75*
G02*
X124775000Y-103256250I0J218750D01*
G01*
G37*
%TD*%
%TO.C,R1*%
G36*
G01*
X126350000Y-101256250D02*
X126350000Y-100743750D01*
G75*
G02*
X126568750Y-100525000I218750J0D01*
G01*
X127006250Y-100525000D01*
G75*
G02*
X127225000Y-100743750I0J-218750D01*
G01*
X127225000Y-101256250D01*
G75*
G02*
X127006250Y-101475000I-218750J0D01*
G01*
X126568750Y-101475000D01*
G75*
G02*
X126350000Y-101256250I0J218750D01*
G01*
G37*
G36*
G01*
X124775000Y-101256250D02*
X124775000Y-100743750D01*
G75*
G02*
X124993750Y-100525000I218750J0D01*
G01*
X125431250Y-100525000D01*
G75*
G02*
X125650000Y-100743750I0J-218750D01*
G01*
X125650000Y-101256250D01*
G75*
G02*
X125431250Y-101475000I-218750J0D01*
G01*
X124993750Y-101475000D01*
G75*
G02*
X124775000Y-101256250I0J218750D01*
G01*
G37*
%TD*%
%TO.C,R5*%
G36*
G01*
X139650000Y-97762500D02*
X139650000Y-98237500D01*
G75*
G02*
X139412500Y-98475000I-237500J0D01*
G01*
X138837500Y-98475000D01*
G75*
G02*
X138600000Y-98237500I0J237500D01*
G01*
X138600000Y-97762500D01*
G75*
G02*
X138837500Y-97525000I237500J0D01*
G01*
X139412500Y-97525000D01*
G75*
G02*
X139650000Y-97762500I0J-237500D01*
G01*
G37*
G36*
G01*
X141400000Y-97762500D02*
X141400000Y-98237500D01*
G75*
G02*
X141162500Y-98475000I-237500J0D01*
G01*
X140587500Y-98475000D01*
G75*
G02*
X140350000Y-98237500I0J237500D01*
G01*
X140350000Y-97762500D01*
G75*
G02*
X140587500Y-97525000I237500J0D01*
G01*
X141162500Y-97525000D01*
G75*
G02*
X141400000Y-97762500I0J-237500D01*
G01*
G37*
%TD*%
%TO.C,R4*%
G36*
G01*
X137762500Y-93350000D02*
X138237500Y-93350000D01*
G75*
G02*
X138475000Y-93587500I0J-237500D01*
G01*
X138475000Y-94162500D01*
G75*
G02*
X138237500Y-94400000I-237500J0D01*
G01*
X137762500Y-94400000D01*
G75*
G02*
X137525000Y-94162500I0J237500D01*
G01*
X137525000Y-93587500D01*
G75*
G02*
X137762500Y-93350000I237500J0D01*
G01*
G37*
G36*
G01*
X137762500Y-91600000D02*
X138237500Y-91600000D01*
G75*
G02*
X138475000Y-91837500I0J-237500D01*
G01*
X138475000Y-92412500D01*
G75*
G02*
X138237500Y-92650000I-237500J0D01*
G01*
X137762500Y-92650000D01*
G75*
G02*
X137525000Y-92412500I0J237500D01*
G01*
X137525000Y-91837500D01*
G75*
G02*
X137762500Y-91600000I237500J0D01*
G01*
G37*
%TD*%
%TO.C,R3*%
G36*
G01*
X130762500Y-93350000D02*
X131237500Y-93350000D01*
G75*
G02*
X131475000Y-93587500I0J-237500D01*
G01*
X131475000Y-94162500D01*
G75*
G02*
X131237500Y-94400000I-237500J0D01*
G01*
X130762500Y-94400000D01*
G75*
G02*
X130525000Y-94162500I0J237500D01*
G01*
X130525000Y-93587500D01*
G75*
G02*
X130762500Y-93350000I237500J0D01*
G01*
G37*
G36*
G01*
X130762500Y-91600000D02*
X131237500Y-91600000D01*
G75*
G02*
X131475000Y-91837500I0J-237500D01*
G01*
X131475000Y-92412500D01*
G75*
G02*
X131237500Y-92650000I-237500J0D01*
G01*
X130762500Y-92650000D01*
G75*
G02*
X130525000Y-92412500I0J237500D01*
G01*
X130525000Y-91837500D01*
G75*
G02*
X130762500Y-91600000I237500J0D01*
G01*
G37*
%TD*%
%TO.C,C1*%
G36*
G01*
X128256250Y-92650000D02*
X127743750Y-92650000D01*
G75*
G02*
X127525000Y-92431250I0J218750D01*
G01*
X127525000Y-91993750D01*
G75*
G02*
X127743750Y-91775000I218750J0D01*
G01*
X128256250Y-91775000D01*
G75*
G02*
X128475000Y-91993750I0J-218750D01*
G01*
X128475000Y-92431250D01*
G75*
G02*
X128256250Y-92650000I-218750J0D01*
G01*
G37*
G36*
G01*
X128256250Y-94225000D02*
X127743750Y-94225000D01*
G75*
G02*
X127525000Y-94006250I0J218750D01*
G01*
X127525000Y-93568750D01*
G75*
G02*
X127743750Y-93350000I218750J0D01*
G01*
X128256250Y-93350000D01*
G75*
G02*
X128475000Y-93568750I0J-218750D01*
G01*
X128475000Y-94006250D01*
G75*
G02*
X128256250Y-94225000I-218750J0D01*
G01*
G37*
%TD*%
%TO.C,U1*%
G36*
G01*
X130875000Y-101175000D02*
X130875000Y-101375000D01*
G75*
G02*
X130775000Y-101475000I-100000J0D01*
G01*
X129500000Y-101475000D01*
G75*
G02*
X129400000Y-101375000I0J100000D01*
G01*
X129400000Y-101175000D01*
G75*
G02*
X129500000Y-101075000I100000J0D01*
G01*
X130775000Y-101075000D01*
G75*
G02*
X130875000Y-101175000I0J-100000D01*
G01*
G37*
G36*
G01*
X130875000Y-100525000D02*
X130875000Y-100725000D01*
G75*
G02*
X130775000Y-100825000I-100000J0D01*
G01*
X129500000Y-100825000D01*
G75*
G02*
X129400000Y-100725000I0J100000D01*
G01*
X129400000Y-100525000D01*
G75*
G02*
X129500000Y-100425000I100000J0D01*
G01*
X130775000Y-100425000D01*
G75*
G02*
X130875000Y-100525000I0J-100000D01*
G01*
G37*
G36*
G01*
X130875000Y-99875000D02*
X130875000Y-100075000D01*
G75*
G02*
X130775000Y-100175000I-100000J0D01*
G01*
X129500000Y-100175000D01*
G75*
G02*
X129400000Y-100075000I0J100000D01*
G01*
X129400000Y-99875000D01*
G75*
G02*
X129500000Y-99775000I100000J0D01*
G01*
X130775000Y-99775000D01*
G75*
G02*
X130875000Y-99875000I0J-100000D01*
G01*
G37*
G36*
G01*
X130875000Y-99225000D02*
X130875000Y-99425000D01*
G75*
G02*
X130775000Y-99525000I-100000J0D01*
G01*
X129500000Y-99525000D01*
G75*
G02*
X129400000Y-99425000I0J100000D01*
G01*
X129400000Y-99225000D01*
G75*
G02*
X129500000Y-99125000I100000J0D01*
G01*
X130775000Y-99125000D01*
G75*
G02*
X130875000Y-99225000I0J-100000D01*
G01*
G37*
G36*
G01*
X130875000Y-98575000D02*
X130875000Y-98775000D01*
G75*
G02*
X130775000Y-98875000I-100000J0D01*
G01*
X129500000Y-98875000D01*
G75*
G02*
X129400000Y-98775000I0J100000D01*
G01*
X129400000Y-98575000D01*
G75*
G02*
X129500000Y-98475000I100000J0D01*
G01*
X130775000Y-98475000D01*
G75*
G02*
X130875000Y-98575000I0J-100000D01*
G01*
G37*
G36*
G01*
X130875000Y-97925000D02*
X130875000Y-98125000D01*
G75*
G02*
X130775000Y-98225000I-100000J0D01*
G01*
X129500000Y-98225000D01*
G75*
G02*
X129400000Y-98125000I0J100000D01*
G01*
X129400000Y-97925000D01*
G75*
G02*
X129500000Y-97825000I100000J0D01*
G01*
X130775000Y-97825000D01*
G75*
G02*
X130875000Y-97925000I0J-100000D01*
G01*
G37*
G36*
G01*
X130875000Y-97275000D02*
X130875000Y-97475000D01*
G75*
G02*
X130775000Y-97575000I-100000J0D01*
G01*
X129500000Y-97575000D01*
G75*
G02*
X129400000Y-97475000I0J100000D01*
G01*
X129400000Y-97275000D01*
G75*
G02*
X129500000Y-97175000I100000J0D01*
G01*
X130775000Y-97175000D01*
G75*
G02*
X130875000Y-97275000I0J-100000D01*
G01*
G37*
G36*
G01*
X130875000Y-96625000D02*
X130875000Y-96825000D01*
G75*
G02*
X130775000Y-96925000I-100000J0D01*
G01*
X129500000Y-96925000D01*
G75*
G02*
X129400000Y-96825000I0J100000D01*
G01*
X129400000Y-96625000D01*
G75*
G02*
X129500000Y-96525000I100000J0D01*
G01*
X130775000Y-96525000D01*
G75*
G02*
X130875000Y-96625000I0J-100000D01*
G01*
G37*
G36*
G01*
X136600000Y-96625000D02*
X136600000Y-96825000D01*
G75*
G02*
X136500000Y-96925000I-100000J0D01*
G01*
X135225000Y-96925000D01*
G75*
G02*
X135125000Y-96825000I0J100000D01*
G01*
X135125000Y-96625000D01*
G75*
G02*
X135225000Y-96525000I100000J0D01*
G01*
X136500000Y-96525000D01*
G75*
G02*
X136600000Y-96625000I0J-100000D01*
G01*
G37*
G36*
G01*
X136600000Y-97275000D02*
X136600000Y-97475000D01*
G75*
G02*
X136500000Y-97575000I-100000J0D01*
G01*
X135225000Y-97575000D01*
G75*
G02*
X135125000Y-97475000I0J100000D01*
G01*
X135125000Y-97275000D01*
G75*
G02*
X135225000Y-97175000I100000J0D01*
G01*
X136500000Y-97175000D01*
G75*
G02*
X136600000Y-97275000I0J-100000D01*
G01*
G37*
G36*
G01*
X136600000Y-97925000D02*
X136600000Y-98125000D01*
G75*
G02*
X136500000Y-98225000I-100000J0D01*
G01*
X135225000Y-98225000D01*
G75*
G02*
X135125000Y-98125000I0J100000D01*
G01*
X135125000Y-97925000D01*
G75*
G02*
X135225000Y-97825000I100000J0D01*
G01*
X136500000Y-97825000D01*
G75*
G02*
X136600000Y-97925000I0J-100000D01*
G01*
G37*
G36*
G01*
X136600000Y-98575000D02*
X136600000Y-98775000D01*
G75*
G02*
X136500000Y-98875000I-100000J0D01*
G01*
X135225000Y-98875000D01*
G75*
G02*
X135125000Y-98775000I0J100000D01*
G01*
X135125000Y-98575000D01*
G75*
G02*
X135225000Y-98475000I100000J0D01*
G01*
X136500000Y-98475000D01*
G75*
G02*
X136600000Y-98575000I0J-100000D01*
G01*
G37*
G36*
G01*
X136600000Y-99225000D02*
X136600000Y-99425000D01*
G75*
G02*
X136500000Y-99525000I-100000J0D01*
G01*
X135225000Y-99525000D01*
G75*
G02*
X135125000Y-99425000I0J100000D01*
G01*
X135125000Y-99225000D01*
G75*
G02*
X135225000Y-99125000I100000J0D01*
G01*
X136500000Y-99125000D01*
G75*
G02*
X136600000Y-99225000I0J-100000D01*
G01*
G37*
G36*
G01*
X136600000Y-99875000D02*
X136600000Y-100075000D01*
G75*
G02*
X136500000Y-100175000I-100000J0D01*
G01*
X135225000Y-100175000D01*
G75*
G02*
X135125000Y-100075000I0J100000D01*
G01*
X135125000Y-99875000D01*
G75*
G02*
X135225000Y-99775000I100000J0D01*
G01*
X136500000Y-99775000D01*
G75*
G02*
X136600000Y-99875000I0J-100000D01*
G01*
G37*
G36*
G01*
X136600000Y-100525000D02*
X136600000Y-100725000D01*
G75*
G02*
X136500000Y-100825000I-100000J0D01*
G01*
X135225000Y-100825000D01*
G75*
G02*
X135125000Y-100725000I0J100000D01*
G01*
X135125000Y-100525000D01*
G75*
G02*
X135225000Y-100425000I100000J0D01*
G01*
X136500000Y-100425000D01*
G75*
G02*
X136600000Y-100525000I0J-100000D01*
G01*
G37*
G36*
G01*
X136600000Y-101175000D02*
X136600000Y-101375000D01*
G75*
G02*
X136500000Y-101475000I-100000J0D01*
G01*
X135225000Y-101475000D01*
G75*
G02*
X135125000Y-101375000I0J100000D01*
G01*
X135125000Y-101175000D01*
G75*
G02*
X135225000Y-101075000I100000J0D01*
G01*
X136500000Y-101075000D01*
G75*
G02*
X136600000Y-101175000I0J-100000D01*
G01*
G37*
%TD*%
M02*
