M48
; DRILL file {KiCad 5.1.6+dfsg1-1} date Sun Sep 13 10:14:25 2020
; FORMAT={-:-/ absolute / metric / decimal}
; #@! TF.CreationDate,2020-09-13T10:14:25+10:00
; #@! TF.GenerationSoftware,Kicad,Pcbnew,5.1.6+dfsg1-1
; #@! TF.FileFunction,Plated,1,2,PTH
FMAT,2
METRIC
T1C0.400
T2C1.000
T3C1.016
%
G90
G05
T1
X128.0Y-99.0
X129.5Y-93.0
X132.5Y-93.0
X136.0Y-95.5
X136.5Y-93.0
X139.5Y-93.0
T2
X128.27Y-110.49
X130.81Y-110.49
X133.35Y-110.49
X135.89Y-110.49
X138.43Y-110.49
X140.97Y-110.49
T3
X125.77Y-92.58
X125.77Y-95.12
X125.77Y-97.66
X128.27Y-105.41
X130.81Y-105.41
X133.35Y-105.41
X135.89Y-105.41
X138.43Y-105.41
X140.97Y-105.41
T0
M30
